<svg id="Layer_1" data-name="Layer 1" xmlns="http://www.w3.org/2000/svg" viewBox="0 0 200 55.79"><title>black</title>
<path d="M5.06,22.38h8.61V77.05H5.06Zm5.27,46.44h10.6a8.08,8.08,0,0,0,5.81-2,7.39,7.39,0,0,0,2.05-5.6V38.17a7.41,7.41,0,0,0-2.05-5.6,8.12,8.12,0,0,0-5.81-1.95H10.33V22.38H21a20,20,0,0,1,9,1.85,12.8,12.8,0,0,1,5.68,5.35,17.36,17.36,0,0,1,1.95,8.52V61.33a17.43,17.43,0,0,1-1.93,8.45A12.83,12.83,0,0,1,30,75.19a20,20,0,0,1-9,1.86H10.33Z" transform="translate(-5.06 -21.82)"/>
<path d="M47,22.35h8.57v54.7H47ZM50.71,46h14.4a5.93,5.93,0,0,0,3-.74,4.74,4.74,0,0,0,2-2.1,7.68,7.68,0,0,0,.71-3.29v-3a7.67,7.67,0,0,0-.67-3.31,5,5,0,0,0-2-2.2,5.82,5.82,0,0,0-3-.77H50.71V22.35H64.92a16.83,16.83,0,0,1,7.82,1.71A12.13,12.13,0,0,1,77.85,29a15.29,15.29,0,0,1,1.81,7.58v3.19a15.64,15.64,0,0,1-1.81,7.69,12.19,12.19,0,0,1-5.13,5,16.5,16.5,0,0,1-7.8,1.75H50.71ZM61.53,52.5,70,50.77,81.57,77.05H71.72Z" transform="translate(-5.06 -21.82)"/>
<path d="M96.73,75.58a14.06,14.06,0,0,1-5.81-5.8,18.29,18.29,0,0,1-2-8.86V38.51a18.22,18.22,0,0,1,2-8.87,14,14,0,0,1,5.81-5.79,20.24,20.24,0,0,1,17.67,0,14.07,14.07,0,0,1,5.8,5.79,18.22,18.22,0,0,1,2,8.87V60.92a18.29,18.29,0,0,1-2,8.86,14.09,14.09,0,0,1-5.8,5.8,20.24,20.24,0,0,1-17.67,0Zm13-7.48a6.68,6.68,0,0,0,2.75-2.89,9.92,9.92,0,0,0,.94-4.44V38.63a9.8,9.8,0,0,0-.94-4.4,6.7,6.7,0,0,0-2.75-2.9,9.28,9.28,0,0,0-8.42,0,6.78,6.78,0,0,0-2.76,2.9,9.54,9.54,0,0,0-1,4.4V60.77a9.66,9.66,0,0,0,1,4.44,6.76,6.76,0,0,0,2.76,2.89,9.2,9.2,0,0,0,8.42,0Z" transform="translate(-5.06 -21.82)"/>
<path d="M131.62,22.38h8.61V77.05h-8.61Zm4.24,25.23h13.73a5.77,5.77,0,0,0,3-.79,5,5,0,0,0,2-2.29,8.16,8.16,0,0,0,.7-3.5V37.35a8.78,8.78,0,0,0-.68-3.59,5,5,0,0,0-2-2.33,5.78,5.78,0,0,0-3.06-.81H135.86V22.38h13.61a16.52,16.52,0,0,1,7.81,1.75,12.23,12.23,0,0,1,5.09,5.06,16,16,0,0,1,1.8,7.74v4.52a15.67,15.67,0,0,1-1.8,7.67,12.2,12.2,0,0,1-5.11,5,16.64,16.64,0,0,1-7.79,1.73H135.86Z" transform="translate(-5.06 -21.82)"/>
<path d="M172.41,22.38H181V77.05h-8.61Zm3.83,0H202.3v8.28H176.24Zm0,23.43h23V54h-23Zm0,23H202.3v8.27H176.24Z" transform="translate(-5.06 -21.82)"/>
</svg>