<svg xmlns="http://www.w3.org/2000/svg" xmlns:xlink="http://www.w3.org/1999/xlink" version="1.1" id="Layer_1" x="0px" y="0px" xml:space="preserve" viewBox="340 340 400 400"><g><path class="st0" d="M551.8,608.5h52.9c14.2,0,25.7-11.6,25.7-25.9c0-14-11-25.3-24.7-25.9h-130c-0.7,0-1.3,0-2-0.1h-0.5v0   c-31.3-1.3-56.4-27.3-56.4-59.3c0-32.8,26.3-59.3,58.8-59.3v0l236.4,0C677.2,379.4,613.2,340,540,340c-110.5,0-200,89.5-200,200   c0,24.1,4.3,47.2,12.1,68.5H551.8z"/><path class="st0" d="M727.9,471.5H528.6v0h-52.9c-14.2,0-25.7,11.6-25.7,25.9c0,13.9,10.9,25.2,24.5,25.9h130.2v0   c0.8,0,1.6,0,2.4,0.1h0v0c31.3,1.3,56.4,27.3,56.4,59.3c0,32.8-26.3,59.3-58.8,59.3H367.9C402.8,700.6,466.8,740,540,740   c110.5,0,200-89.5,200-200C740,515.9,735.7,492.8,727.9,471.5z"/></g></svg>